<?xml version="1.0" standalone="no"?><!DOCTYPE svg PUBLIC "-//W3C//DTD SVG 1.1//EN" "http://www.w3.org/Graphics/SVG/1.1/DTD/svg11.dtd"><svg t="1697446087174" class="icon" viewBox="0 0 1024 1024" version="1.1" xmlns="http://www.w3.org/2000/svg" p-id="1552" id="mx_n_1697446087174" width="32" height="32" xmlns:xlink="http://www.w3.org/1999/xlink"><path d="M99 307.9c0-16.4 5.2-27.4 15.6-38.4 20.8-21.9 51.9-16.4 72.7 5.5l301 351.1c10.4 11 20.8 16.5 31.1 16.5 10.4 0 20.8-5.5 31.1-16.5l285.4-356.6c20.8-21.9 51.9-27.4 72.7-5.5 20.8 21.9 25.9 54.8 5.2 76.8L628.4 691.9c-26 32.9-67.5 54.8-109 54.8s-77.8-16.4-109-49.4l-301-351.1c-5.2-10.9-10.4-27.4-10.4-38.3z" p-id="1553" fill="#1d9bf0"></path></svg>